<svg width="26" height="10" viewBox="0 0 26 10" fill="none" xmlns="http://www.w3.org/2000/svg">
<rect width="26" height="10" fill="#F5F5F5"/>
<path d="M7.02273 3C6.92898 2.71307 6.8054 2.45597 6.65199 2.22869C6.50142 1.99858 6.32102 1.80256 6.1108 1.64062C5.90341 1.47869 5.66761 1.35511 5.40341 1.26989C5.1392 1.18466 4.84943 1.14205 4.53409 1.14205C4.01705 1.14205 3.54688 1.27557 3.12358 1.54261C2.70028 1.80966 2.36364 2.20312 2.11364 2.72301C1.86364 3.2429 1.73864 3.88068 1.73864 4.63636C1.73864 5.39205 1.86506 6.02983 2.1179 6.54972C2.37074 7.0696 2.71307 7.46307 3.14489 7.73011C3.5767 7.99716 4.0625 8.13068 4.60227 8.13068C5.10227 8.13068 5.54261 8.02415 5.9233 7.81108C6.30682 7.59517 6.60511 7.29119 6.81818 6.89915C7.03409 6.50426 7.14205 6.03977 7.14205 5.50568L7.46591 5.57386H4.84091V4.63636H8.16477V5.57386C8.16477 6.29261 8.01136 6.91761 7.70455 7.44886C7.40057 7.98011 6.98011 8.39205 6.44318 8.68466C5.90909 8.97443 5.29545 9.11932 4.60227 9.11932C3.82955 9.11932 3.15057 8.9375 2.56534 8.57386C1.98295 8.21023 1.52841 7.69318 1.2017 7.02273C0.877841 6.35227 0.715909 5.55682 0.715909 4.63636C0.715909 3.94602 0.808239 3.32528 0.992898 2.77415C1.1804 2.22017 1.4446 1.74858 1.78551 1.35938C2.12642 0.97017 2.52983 0.671875 2.99574 0.464489C3.46165 0.257102 3.97443 0.153409 4.53409 0.153409C4.99432 0.153409 5.4233 0.223011 5.82102 0.362216C6.22159 0.498579 6.57812 0.693181 6.89062 0.946022C7.20597 1.19602 7.46875 1.49574 7.67898 1.84517C7.8892 2.19176 8.03409 2.5767 8.11364 3H7.02273ZM9.97479 9V0.272727H11.0316V4.15909H15.685V0.272727H16.7418V9H15.685V5.09659H11.0316V9H9.97479ZM24.8235 3C24.7298 2.71307 24.6062 2.45597 24.4528 2.22869C24.3022 1.99858 24.1218 1.80256 23.9116 1.64062C23.7042 1.47869 23.4684 1.35511 23.2042 1.26989C22.94 1.18466 22.6502 1.14205 22.3349 1.14205C21.8178 1.14205 21.3477 1.27557 20.9244 1.54261C20.5011 1.80966 20.1644 2.20312 19.9144 2.72301C19.6644 3.2429 19.5394 3.88068 19.5394 4.63636C19.5394 5.39205 19.6658 6.02983 19.9187 6.54972C20.1715 7.0696 20.5138 7.46307 20.9457 7.73011C21.3775 7.99716 21.8633 8.13068 22.4031 8.13068C22.9031 8.13068 23.3434 8.02415 23.7241 7.81108C24.1076 7.59517 24.4059 7.29119 24.619 6.89915C24.8349 6.50426 24.9428 6.03977 24.9428 5.50568L25.2667 5.57386H22.6417V4.63636H25.9656V5.57386C25.9656 6.29261 25.8121 6.91761 25.5053 7.44886C25.2013 7.98011 24.7809 8.39205 24.244 8.68466C23.7099 8.97443 23.0962 9.11932 22.4031 9.11932C21.6303 9.11932 20.9513 8.9375 20.3661 8.57386C19.7837 8.21023 19.3292 7.69318 19.0025 7.02273C18.6786 6.35227 18.5167 5.55682 18.5167 4.63636C18.5167 3.94602 18.609 3.32528 18.7937 2.77415C18.9812 2.22017 19.2454 1.74858 19.5863 1.35938C19.9272 0.97017 20.3306 0.671875 20.7965 0.464489C21.2624 0.257102 21.7752 0.153409 22.3349 0.153409C22.7951 0.153409 23.2241 0.223011 23.6218 0.362216C24.0224 0.498579 24.3789 0.693181 24.6914 0.946022C25.0067 1.19602 25.2695 1.49574 25.4798 1.84517C25.69 2.19176 25.8349 2.5767 25.9144 3H24.8235Z" fill="black"/>
</svg>
